<svg xmlns="http://www.w3.org/2000/svg" viewBox="0 0 612 612"><defs><style>.cls-1{fill:#231f20;}</style></defs><g id="mix_4" data-name="mix 4"><path class="cls-1" d="M396.31,551.5H278.54a35.09,35.09,0,0,1-35.09-35V229.1H454.6l-3.69,7.26c-.14.27-13.7,27.06-19.52,46.88V516.5A35.09,35.09,0,0,1,396.31,551.5ZM253.45,239.1V516.5a25.08,25.08,0,0,0,25.09,25H396.31a25.07,25.07,0,0,0,25.08-25V281.82l.2-.67c4.17-14.55,12.2-32.3,16.85-42Z"/><path class="cls-1" d="M396.31,514.45H278.54a30,30,0,0,1-30.09-30v32a30,30,0,0,0,30.09,30H396.31a30,30,0,0,0,30.08-30v-32A30,30,0,0,1,396.31,514.45Z"/><path class="cls-1" d="M396.31,551.5H278.54a35.09,35.09,0,0,1-35.09-35V484.45h10a25.07,25.07,0,0,0,25.09,25H396.31a25.06,25.06,0,0,0,25.08-25h10V516.5A35.09,35.09,0,0,1,396.31,551.5ZM253.45,508.9v7.6a25.08,25.08,0,0,0,25.09,25H396.31a25.07,25.07,0,0,0,25.08-25v-7.6a35,35,0,0,1-25.08,10.55H278.54A35,35,0,0,1,253.45,508.9Z"/><path class="cls-1" d="M412.42,234.1h-164V368.5H426.39v-86c5.91-20.59,20.06-48.43,20.06-48.43Z"/><path class="cls-1" d="M431.39,373.5H243.45V229.1H454.6l-3.69,7.26c-.14.27-13.7,27.06-19.52,46.88Zm-177.94-10H421.39V281.82l.2-.67c4.17-14.55,12.2-32.3,16.85-42h-185Z"/><path class="cls-1" d="M181.29,99.66,354.75,460.45s-1.55,25.35.36,33.51c4.13,17.72,23.36,25.33,34.56,19.94s17.25-25.14,6-39.45c-5.19-6.59-26-21.25-26-21.25L196.26,92.46s-1.74-15-3.21-19.83c-2.77-9-10.49-8.07-17.64-4.77l-.08,0c-7.15,3.31-13,8.64-7.79,16.53C170.37,88.7,181.29,99.66,181.29,99.66Z"/></g></svg>