<svg xmlns="http://www.w3.org/2000/svg" viewBox="0 0 612 612"><defs><style>.cls-1{fill:#231f20;}</style></defs><g id="mix_1" data-name="mix 1"><path class="cls-1" d="M360.4,514.85H242.64a30,30,0,0,1-30.09-30v32a30,30,0,0,0,30.09,30H360.4a30,30,0,0,0,30.09-30v-32A30,30,0,0,1,360.4,514.85Z"/><path class="cls-1" d="M360.4,549.89H242.64a33.08,33.08,0,0,1-33.09-33v-32h6a27.07,27.07,0,0,0,27.09,27H360.4a27.07,27.07,0,0,0,27.09-27h6v32A33.08,33.08,0,0,1,360.4,549.89ZM215.55,503.78v13.11a27.07,27.07,0,0,0,27.09,27H360.4a27.07,27.07,0,0,0,27.09-27V503.78a33.1,33.1,0,0,1-27.09,14.07H242.64A33.1,33.1,0,0,1,215.55,503.78Z"/><path class="cls-1" d="M360.4,551.89H242.64a35.08,35.08,0,0,1-35.09-35V229.5l169.44,0c.56,0,13.78,1.37,21.91,6.64,7,4.5,14.93,16.37,15.82,17.71L418.1,259l-5.68,2.29c-.44.19-11.74,5.16-16.93,22.38V516.89A35.08,35.08,0,0,1,360.4,551.89ZM217.55,239.5V516.89a25.07,25.07,0,0,0,25.09,25H360.4a25.07,25.07,0,0,0,25.09-25V282.22l.19-.67c4.2-14.63,12.27-22.57,17.65-26.44-2.86-3.82-6.83-8.59-9.86-10.56-5-3.2-13.88-4.71-17.2-5.05Z"/><path class="cls-1" d="M145.72,99.26,319.18,460.05s-1.55,25.35.35,33.51c4.14,17.72,23.36,25.33,34.56,19.95s17.26-25.15,6-39.46c-5.19-6.59-26-21.25-26-21.25L160.69,92.06s-1.75-15-3.21-19.82c-2.77-9-10.49-8.08-17.64-4.78l-.08,0c-7.16,3.31-13,8.64-7.79,16.53C134.79,88.3,145.72,99.26,145.72,99.26Z"/></g></svg>