<svg xmlns="http://www.w3.org/2000/svg" viewBox="0 0 612 612"><defs><style>.cls-1{fill:#231f20;}</style></defs><g id="mix_2" data-name="mix 2"><path class="cls-1" d="M396.31,551.5H278.54a35.09,35.09,0,0,1-35.09-35V229.1l169.45,0c.56,0,13.77,1.37,21.91,6.64,6.94,4.5,14.92,16.37,15.81,17.71l3.39,5.11-5.69,2.29c-.44.19-11.74,5.16-16.93,22.38V516.5A35.09,35.09,0,0,1,396.31,551.5ZM253.45,239.1V516.5a25.08,25.08,0,0,0,25.09,25H396.31a25.07,25.07,0,0,0,25.08-25V281.82l.2-.67c4.19-14.63,12.27-22.57,17.65-26.44-2.87-3.82-6.84-8.59-9.87-10.55-4.95-3.21-13.87-4.72-17.2-5.06Z"/><path class="cls-1" d="M396.31,514.45H278.54a30,30,0,0,1-30.09-30v32a30,30,0,0,0,30.09,30H396.31a30,30,0,0,0,30.08-30v-32A30,30,0,0,1,396.31,514.45Z"/><path class="cls-1" d="M396.31,551.5H278.54a35.09,35.09,0,0,1-35.09-35V484.45h10a25.07,25.07,0,0,0,25.09,25H396.31a25.06,25.06,0,0,0,25.08-25h10V516.5A35.09,35.09,0,0,1,396.31,551.5ZM253.45,508.9v7.6a25.08,25.08,0,0,0,25.09,25H396.31a25.07,25.07,0,0,0,25.08-25v-7.6a35,35,0,0,1-25.08,10.55H278.54A35,35,0,0,1,253.45,508.9Z"/><path class="cls-1" d="M432.09,240c-7.2-4.67-19.67-5.86-19.67-5.86h-164V368.5H426.39v-86c5.91-20.59,20.06-26.3,20.06-26.3S438.36,244,432.09,240Z"/><path class="cls-1" d="M431.39,373.5H243.45V229.1l169.45,0c.56,0,13.77,1.37,21.91,6.64,6.94,4.5,14.92,16.37,15.81,17.71l3.39,5.11-5.69,2.29c-.44.19-11.74,5.16-16.93,22.38Zm-177.94-10H421.39V281.82l.2-.67c4.2-14.63,12.27-22.57,17.65-26.44-2.87-3.82-6.84-8.59-9.87-10.55h0c-4.92-3.19-13.87-4.71-17.2-5.06H253.45Z"/><path class="cls-1" d="M181.29,99.66,354.75,460.45s-1.55,25.35.36,33.51c4.13,17.72,23.36,25.33,34.56,19.94s17.25-25.14,6-39.45c-5.19-6.59-26-21.25-26-21.25L196.26,92.46s-1.74-15-3.21-19.83c-2.77-9-10.49-8.07-17.64-4.77l-.08,0c-7.15,3.31-13,8.64-7.79,16.53C170.37,88.7,181.29,99.66,181.29,99.66Z"/></g></svg>