<svg xmlns="http://www.w3.org/2000/svg" viewBox="0 0 612 612"><defs><style>.cls-1{fill:#231f20;}.cls-2{fill:#fff;}</style></defs><g id="Layer_14" data-name="Layer 14"><path class="cls-1" d="M200,306.8H412a0,0,0,0,1,0,0v182a30,30,0,0,1-30,30H230a30,30,0,0,1-30-30v-182A0,0,0,0,1,200,306.8Z"/><path class="cls-1" d="M382,523.78H230a35,35,0,0,1-35-35v-187H417v187A35,35,0,0,1,382,523.78Zm-177-212v177a25,25,0,0,0,25,25H382a25,25,0,0,0,25-25v-177Z"/><path class="cls-2" d="M200,306.8H412a0,0,0,0,1,0,0V454.87a30,30,0,0,1-30,30H230a30,30,0,0,1-30-30V306.8A0,0,0,0,1,200,306.8Z"/><path class="cls-1" d="M382,489.87H230a35,35,0,0,1-35-35V301.8H417V454.87A35,35,0,0,1,382,489.87ZM205,311.8V454.87a25,25,0,0,0,25,25H382a25,25,0,0,0,25-25V311.8Z"/><path class="cls-1" d="M344.23,459.84l-12.75,13.7-12.74-18.7L306,473.54l-12.74-18.7-12.74,18.7-12.74-13.7V435.09c0-5,1.22-17.5,20-17.5h36.48c20,0,20,12.48,20,17.5v24.75Z"/><path class="cls-1" d="M306,482.41l-12.74-18.69-12.13,17.81L262.77,461.8V435.09a23,23,0,0,1,3.88-13.52c4.21-6,11.31-9,21.11-9h36.48c16.58,0,25,7.57,25,22.5v26.72l-18.35,19.72-12.14-17.81ZM318.74,446l13.35,19.59,7.14-7.68V435.09c0-2.13,0-5.37-1.66-7.86-2.05-3.08-6.54-4.64-13.33-4.64H287.76c-13.43,0-15,7.14-15,12.5v22.78l7.14,7.67L293.25,446,306,464.66Z"/><path class="cls-1" d="M267.77,432s18.88-47.7,19.52-75.57c1-44.6-8.62-232.58-8.62-232.58,0-16.86,27.2-30.66,27.28-30.66h.1c.08,0,27.28,13.8,27.28,30.66,0,0-9.65,188-8.62,232.58.64,27.87,19.42,75.57,19.42,75.57"/><path class="cls-1" d="M272.42,433.87l-9.3-3.68c.19-.47,18.56-47.2,19.17-73.85,1-43.9-8.51-230.33-8.61-232.2v-.26c0-8.57,5.2-17.16,15.45-25.53,2.53-2.06,13.57-10.13,16.83-10.13h.1c3.26,0,14.3,8.07,16.83,10.13,10.25,8.37,15.45,17,15.45,25.53v.26c-.1,1.87-9.63,188.3-8.61,232.2.61,26.65,18.89,73.39,19.07,73.86l-9.3,3.67c-.78-2-19.12-48.87-19.77-77.3-1-44,8.13-223.3,8.62-232.81-.12-10.47-15.4-21-22.33-24.91-6.92,3.92-22.21,14.44-22.33,24.91.49,9.51,9.64,188.78,8.62,232.81C291.64,385,273.21,431.89,272.42,433.87Z"/></g></svg>