<svg xmlns="http://www.w3.org/2000/svg" viewBox="0 0 612 612"><defs><style>.cls-1{fill:#231f20;}</style></defs><g id="shaker_1" data-name="shaker 1"><path class="cls-1" d="M345.13,539.39H266.87a27.34,27.34,0,0,1-27.16-24.24L206.18,221.23H405.82L372.29,515.15A27.34,27.34,0,0,1,345.13,539.39Z"/><path class="cls-1" d="M345.13,544.39H266.87a32.33,32.33,0,0,1-32.13-28.67L200.57,216.23H411.43L377.26,515.72A32.33,32.33,0,0,1,345.13,544.39ZM211.78,226.23l32.9,288.36a22.32,22.32,0,0,0,22.19,19.8h78.26a22.32,22.32,0,0,0,22.19-19.8l32.9-288.36Z"/><path class="cls-1" d="M397.23,322.55H214.77L247.15,67.61h117.7Zm-171.11-10H385.88L356,77.61H256Z"/></g></svg>