<svg xmlns="http://www.w3.org/2000/svg" viewBox="0 0 612 612"><defs><style>.cls-1{fill:#231f20;}</style></defs><g id="Layer_11" data-name="Layer 11"><path class="cls-1" d="M221,221l25.24,270.56a30,30,0,0,0,29.87,27.22h61.8a30,30,0,0,0,29.89-27.44L391,221s-10.22-30-17.09-37.78c-9.65-10.9-17-13.87-22-17.28a5,5,0,0,1-2.18-3.76l-4.29-55.12a15,15,0,0,0-15-13.84h-46a15,15,0,0,0-14.91,13.38l-6.06,55.66a5,5,0,0,1-2.2,3.62c-5.09,3.37-12.52,7.36-22.5,17.34C231.33,190.67,221,221,221,221Z"/><path class="cls-1" d="M337.91,521.28h-61.8a32.36,32.36,0,0,1-32.36-29.48L218.46,220.7l.17-.51c.43-1.26,10.61-31,18.38-38.73a106.3,106.3,0,0,1,20.23-16c.95-.6,1.83-1.17,2.66-1.71A2.5,2.5,0,0,0,261,162l6.07-55.66a17.48,17.48,0,0,1,17.39-15.61h46a17.58,17.58,0,0,1,17.44,16.14L352.19,162a2.5,2.5,0,0,0,1.09,1.88c1,.69,2.21,1.39,3.46,2.14a72.42,72.42,0,0,1,19,15.56c7.12,8,17.16,37.38,17.59,38.62l.17.5L370.29,491.56A32.31,32.31,0,0,1,337.91,521.28Zm-114.37-300,25.19,270a27.39,27.39,0,0,0,27.38,24.95h61.8a27.34,27.34,0,0,0,27.4-25.15l23.15-269.82c-2.95-8.59-11.17-30.49-16.42-36.43a67.15,67.15,0,0,0-17.87-14.58c-1.31-.78-2.54-1.52-3.68-2.29a7.44,7.44,0,0,1-3.28-5.63l-4.29-55.13a12.57,12.57,0,0,0-12.46-11.53h-46A12.47,12.47,0,0,0,272,106.87L266,162.53a7.43,7.43,0,0,1-3.31,5.44c-.84.56-1.76,1.14-2.74,1.76A101.8,101.8,0,0,0,240.55,185C234.89,190.65,226.52,212.64,223.54,221.3Z"/></g></svg>