<svg xmlns="http://www.w3.org/2000/svg" viewBox="0 0 612 612"><defs><style>.cls-1{fill:#231f20;}</style></defs><g id="Layer_8" data-name="Layer 8"><path class="cls-1" d="M345.13,544.39H266.87a32.33,32.33,0,0,1-32.13-28.67L200.57,216.23H411.43L377.26,515.72A32.33,32.33,0,0,1,345.13,544.39ZM211.78,226.23l32.9,288.36a22.32,22.32,0,0,0,22.19,19.8h78.26a22.32,22.32,0,0,0,22.19-19.8l32.9-288.36Z"/><polygon class="cls-1" points="374.36 221.86 356.04 77.61 255.96 77.61 237.64 221.86 227.72 220.6 247.15 67.61 364.85 67.61 384.28 220.6 374.36 221.86"/></g></svg>