<svg xmlns="http://www.w3.org/2000/svg" xmlns:xlink="http://www.w3.org/1999/xlink" viewBox="0 0 612 612"><defs><style>.cls-1{fill:none;}.cls-2{fill:#231f20;}.cls-3{clip-path:url(#clip-path);}.cls-4{fill:#fff;}</style><clipPath id="clip-path"><rect class="cls-1" x="209.48" y="221.88" width="188.88" height="307.03"/></clipPath></defs><g id="Layer_12" data-name="Layer 12"><path class="cls-2" d="M221,221l25.24,270.56a30,30,0,0,0,29.87,27.22h61.8a30,30,0,0,0,29.89-27.44L391,221s-10.22-30-17.09-37.78c-9.65-10.9-17-13.87-22-17.28a5,5,0,0,1-2.18-3.76l-4.29-55.12a15,15,0,0,0-15-13.84h-46a15,15,0,0,0-14.91,13.38l-6.06,55.66a5,5,0,0,1-2.2,3.62c-5.09,3.37-12.52,7.36-22.5,17.34C231.33,190.67,221,221,221,221Z"/><path class="cls-2" d="M337.91,523.78h-61.8A34.85,34.85,0,0,1,241.26,492L215.92,220.4l.35-1c1.09-3.22,10.93-31.66,19-39.7a108.84,108.84,0,0,1,20.66-16.3c.93-.59,1.81-1.14,2.62-1.68l6.05-55.65a20,20,0,0,1,19.88-17.84h46a20.11,20.11,0,0,1,19.94,18.45l4.29,55.13c1,.65,2.06,1.3,3.33,2.06a74.52,74.52,0,0,1,19.63,16c7.33,8.27,17,36.31,18.08,39.48l.34,1L372.78,491.77A34.8,34.8,0,0,1,337.91,523.78ZM226.08,221.61,251.22,491.1a24.88,24.88,0,0,0,24.89,22.68h61.8a24.86,24.86,0,0,0,24.91-22.86l23.11-269.3c-3.93-11.37-11.38-30.13-15.77-35.08a64.84,64.84,0,0,0-17.27-14.09c-1.34-.8-2.6-1.56-3.8-2.36a9.94,9.94,0,0,1-4.37-7.52l-4.29-55.12a10.06,10.06,0,0,0-10-9.23h-46a10,10,0,0,0-9.94,8.92l-6.06,55.66a9.92,9.92,0,0,1-4.42,7.25c-.86.57-1.78,1.16-2.78,1.79a99,99,0,0,0-18.94,14.92C237.63,191.44,230,210.18,226.08,221.61Z"/><g class="cls-3"><path class="cls-4" d="M220.93,221.28l25.24,270.57A30,30,0,0,0,276,519.06h61.8a30,30,0,0,0,29.89-27.43l23.2-270.35s-10.23-30-17.09-37.77c-9.66-10.91-17-13.88-22-17.29a5,5,0,0,1-2.18-3.75l-4.29-55.13a15,15,0,0,0-15-13.83h-46a15,15,0,0,0-14.91,13.37l-6.06,55.67a5,5,0,0,1-2.21,3.62c-5.08,3.36-12.51,7.35-22.49,17.34C231.26,191,220.93,221.28,220.93,221.28Z"/><path class="cls-2" d="M337.84,524.06H276a34.85,34.85,0,0,1-34.85-31.75L215.85,220.68l.34-1c1.1-3.21,10.94-31.66,19-39.7a108.8,108.8,0,0,1,20.65-16.29c.94-.59,1.81-1.14,2.62-1.68l6.06-55.66a20,20,0,0,1,19.88-17.83h46A20.09,20.09,0,0,1,350.32,107l4.29,55.12c1,.65,2.07,1.31,3.34,2.07a74.8,74.8,0,0,1,19.63,16c7.32,8.28,17,36.31,18.08,39.48l.34,1L372.71,492.06A34.8,34.8,0,0,1,337.84,524.06ZM226,221.89l25.14,269.49A24.88,24.88,0,0,0,276,514.06h61.8a24.84,24.84,0,0,0,24.9-22.86l23.12-269.29c-3.94-11.37-11.38-30.13-15.77-35.09a65,65,0,0,0-17.27-14.09c-1.34-.8-2.6-1.55-3.8-2.36a10,10,0,0,1-4.38-7.51l-4.29-55.13a10,10,0,0,0-10-9.22h-46a10,10,0,0,0-9.94,8.91l-6.06,55.67a10,10,0,0,1-4.42,7.25c-.86.57-1.79,1.16-2.78,1.79A98.19,98.19,0,0,0,242.24,187C237.56,191.72,230,210.46,226,221.89Z"/></g></g></svg>