<svg xmlns="http://www.w3.org/2000/svg" viewBox="0 0 612 612"><defs><style>.cls-1{fill:#231f20;}</style></defs><g id="mix_3" data-name="mix 3"><path class="cls-1" d="M396.14,514.85H278.37a30,30,0,0,1-30.08-30v32a30,30,0,0,0,30.08,30H396.14a30,30,0,0,0,30.09-30v-32A30,30,0,0,1,396.14,514.85Z"/><path class="cls-1" d="M396.14,549.89H278.38a33.08,33.08,0,0,1-33.09-33v-32h6a27.07,27.07,0,0,0,27.09,27H396.14a27.07,27.07,0,0,0,27.09-27h6v32A33.08,33.08,0,0,1,396.14,549.89ZM251.29,503.78v13.11a27.07,27.07,0,0,0,27.09,27H396.14a27.07,27.07,0,0,0,27.09-27V503.78a33.1,33.1,0,0,1-27.09,14.07H278.38A33.1,33.1,0,0,1,251.29,503.78Z"/><path class="cls-1" d="M396.14,551.89H278.38a35.08,35.08,0,0,1-35.09-35V221.5H459.1l-3.64,7.24c-.07.14-6.74,13.47-24.23,55.19v233A35.08,35.08,0,0,1,396.14,551.89ZM253.29,231.5V516.89a25.07,25.07,0,0,0,25.09,25H396.14a25.07,25.07,0,0,0,25.09-25v-235l.39-.92c11.05-26.41,17.83-41.6,21.47-49.5Z"/><path class="cls-1" d="M181.46,99.26,354.92,460.05s-1.55,25.35.35,33.51c4.14,17.72,23.36,25.33,34.56,19.95s17.26-25.15,6-39.46c-5.19-6.59-26-21.25-26-21.25L196.43,92.06s-1.75-15-3.22-19.82c-2.76-9-10.48-8.08-17.63-4.78l-.08,0c-7.16,3.31-13,8.64-7.8,16.53C170.53,88.3,181.46,99.26,181.46,99.26Z"/></g></svg>